# xmcd
#
# Track frame offsets: 
#        183
#        15370
#        30395
#        49108
#        62045
#        79183
#        94333
#        102058
#        117208
#        131533
#        150058
#        162208
#        182308
#        195958
#
# Disc length: 2735 seconds
#
# Revision: 1
# Processed by: cddbd v1.5.1PL2 Copyright (c) Steve Scherf et al.
# Submitted via: ExactAudioCopy v0.95b3
#
DISCID=940aad0e
DTITLE=Freud Marx Engels and Jung - Rintaan pistää, sukat haisee enkä pi
DTITLE=dä Jeesuksesta
DYEAR=1989
DGENRE=Country
TTITLE0=Pitkätukkainen punaniska
TTITLE1=Teksasiin
TTITLE2=Joki
TTITLE3=En koskaan mene sänkyyn ruman naisen kanssa
TTITLE4=Kuljeta mua
TTITLE5=Buuri Johannesburgista 
TTITLE6=Asseri
TTITLE7=Mihin sotkuun jouduinkaan
TTITLE8=Vanha kaljapummi
TTITLE9=Särkynytsydämiset (viekää minut baariin)
TTITLE10=Pallojuoma
TTITLE11=Kossu on mun kuski
TTITLE12=Kaihoisa kantribiisi
TTITLE13=Iloinen poika ja iloinen tyttö
EXTD=
EXTT0=
EXTT1=
EXTT2=
EXTT3=
EXTT4=
EXTT5=
EXTT6=
EXTT7=
EXTT8=
EXTT9=
EXTT10=
EXTT11=
EXTT12=
EXTT13=
PLAYORDER=
